<svg width="128" height="27" viewBox="0 0 128 27" fill="none" xmlns="http://www.w3.org/2000/svg">
<path d="M6.436 7.13082H9.154L10.486 11.2168L11.818 7.13082H14.554L12.376 13.0708L13.672 16.4728L16.876 7.11282H20.098L15.112 19.8928H12.556L10.486 14.8888L8.434 19.8928H5.86L0.892 7.11282H4.096L7.318 16.4728L8.578 13.0708L6.436 7.13082ZM30.7304 17.3008V19.8928H21.7484V7.11282H30.5684V9.70482H24.7004V12.1888H29.7404V14.5828H24.7004V17.3008H30.7304ZM43.6298 16.6168C43.6298 17.3488 43.4318 17.9608 43.0358 18.4528C42.6518 18.9328 42.1298 19.2928 41.4698 19.5328C40.8098 19.7728 40.0838 19.8928 39.2918 19.8928H33.0638V7.11282H40.1738C40.7738 7.11282 41.2898 7.27482 41.7218 7.59882C42.1658 7.91082 42.5018 8.31882 42.7298 8.82282C42.9698 9.32682 43.0898 9.84882 43.0898 10.3888C43.0898 10.9888 42.9338 11.5648 42.6218 12.1168C42.3098 12.6568 41.8538 13.0648 41.2538 13.3408C41.9858 13.5568 42.5618 13.9408 42.9818 14.4928C43.4138 15.0448 43.6298 15.7528 43.6298 16.6168ZM40.6238 16.0228C40.6238 15.7468 40.5698 15.5068 40.4618 15.3028C40.3538 15.0868 40.2098 14.9188 40.0298 14.7988C39.8618 14.6668 39.6578 14.6008 39.4178 14.6008H36.0158V17.3908H39.2918C39.5438 17.3908 39.7658 17.3308 39.9578 17.2108C40.1618 17.0908 40.3238 16.9288 40.4438 16.7248C40.5638 16.5208 40.6238 16.2868 40.6238 16.0228ZM36.0158 9.63282V12.2788H38.9138C39.1298 12.2788 39.3278 12.2308 39.5078 12.1348C39.6998 12.0388 39.8558 11.8948 39.9758 11.7028C40.0958 11.4988 40.1558 11.2468 40.1558 10.9468C40.1558 10.6588 40.1018 10.4188 39.9938 10.2268C39.8978 10.0348 39.7658 9.89082 39.5978 9.79482C39.4298 9.68682 39.2378 9.63282 39.0218 9.63282H36.0158Z" fill="#4D5AE5"/>
<path d="M53.892 10.8568C53.856 10.7968 53.73 10.7068 53.514 10.5868C53.298 10.4548 53.028 10.3168 52.704 10.1728C52.38 10.0288 52.026 9.90282 51.642 9.79482C51.258 9.68682 50.874 9.63282 50.49 9.63282C49.986 9.63282 49.596 9.72282 49.32 9.90282C49.044 10.0708 48.906 10.3348 48.906 10.6948C48.906 10.9828 49.008 11.2108 49.212 11.3788C49.428 11.5468 49.734 11.6968 50.13 11.8288C50.526 11.9488 51.012 12.0928 51.588 12.2608C52.404 12.4768 53.112 12.7408 53.712 13.0528C54.312 13.3528 54.768 13.7428 55.08 14.2228C55.404 14.7028 55.566 15.3388 55.566 16.1308C55.566 16.8508 55.434 17.4628 55.17 17.9668C54.906 18.4588 54.546 18.8608 54.09 19.1728C53.646 19.4728 53.136 19.6948 52.56 19.8388C51.984 19.9708 51.39 20.0368 50.778 20.0368C50.154 20.0368 49.512 19.9768 48.852 19.8568C48.204 19.7248 47.58 19.5448 46.98 19.3168C46.38 19.0768 45.828 18.7888 45.324 18.4528L46.62 15.8788C46.668 15.9388 46.824 16.0528 47.088 16.2208C47.352 16.3768 47.676 16.5448 48.06 16.7248C48.456 16.8928 48.894 17.0428 49.374 17.1748C49.854 17.3068 50.34 17.3728 50.832 17.3728C51.36 17.3728 51.75 17.2888 52.002 17.1208C52.266 16.9528 52.398 16.7188 52.398 16.4188C52.398 16.0948 52.26 15.8428 51.984 15.6628C51.72 15.4828 51.354 15.3208 50.886 15.1768C50.43 15.0328 49.902 14.8708 49.302 14.6908C48.522 14.4508 47.874 14.1808 47.358 13.8808C46.854 13.5808 46.476 13.2148 46.224 12.7828C45.984 12.3508 45.864 11.8108 45.864 11.1628C45.864 10.2628 46.074 9.50682 46.494 8.89482C46.926 8.27082 47.502 7.80282 48.222 7.49082C48.942 7.16682 49.728 7.00482 50.58 7.00482C51.18 7.00482 51.756 7.07682 52.308 7.22082C52.872 7.36482 53.394 7.54482 53.874 7.76082C54.366 7.97682 54.804 8.19282 55.188 8.40882L53.892 10.8568ZM67.5762 9.70482H63.6882V19.8928H60.7362V9.70482H56.8302V7.11282H67.5762V9.70482ZM75.0479 20.0008C74.0279 20.0008 73.1579 19.8328 72.4379 19.4968C71.7179 19.1488 71.1299 18.6808 70.6739 18.0928C70.2299 17.4928 69.8999 16.8148 69.6839 16.0588C69.4799 15.2908 69.3779 14.4868 69.3779 13.6468V7.11282H72.3299V13.6468C72.3299 14.1268 72.3779 14.5948 72.4739 15.0508C72.5699 15.4948 72.7259 15.8908 72.9419 16.2388C73.1579 16.5868 73.4339 16.8628 73.7699 17.0668C74.1179 17.2708 74.5439 17.3728 75.0479 17.3728C75.5639 17.3728 75.9959 17.2708 76.3439 17.0668C76.6919 16.8508 76.9679 16.5688 77.1719 16.2208C77.3759 15.8608 77.5259 15.4588 77.6219 15.0148C77.7179 14.5708 77.7659 14.1148 77.7659 13.6468V7.11282H80.7179V13.6468C80.7179 14.5348 80.6039 15.3628 80.3759 16.1308C80.1599 16.8988 79.8239 17.5768 79.3679 18.1648C78.9119 18.7408 78.3239 19.1908 77.6039 19.5148C76.8959 19.8388 76.0439 20.0008 75.0479 20.0008ZM83.5452 19.8928V7.11282H88.3152C89.7192 7.11282 90.8892 7.40082 91.8252 7.97682C92.7732 8.54082 93.4872 9.30882 93.9672 10.2808C94.4472 11.2408 94.6872 12.3088 94.6872 13.4848C94.6872 14.7808 94.4232 15.9088 93.8952 16.8688C93.3672 17.8288 92.6232 18.5728 91.6632 19.1008C90.7152 19.6288 89.5992 19.8928 88.3152 19.8928H83.5452ZM91.6812 13.4848C91.6812 12.7408 91.5492 12.0868 91.2852 11.5228C91.0212 10.9468 90.6372 10.5028 90.1332 10.1908C89.6292 9.86682 89.0232 9.70482 88.3152 9.70482H86.4972V17.3008H88.3152C89.0352 17.3008 89.6412 17.1388 90.1332 16.8148C90.6372 16.4788 91.0212 16.0228 91.2852 15.4468C91.5492 14.8588 91.6812 14.2048 91.6812 13.4848ZM96.9699 19.8928V7.11282H99.9219V19.8928H96.9699ZM108.504 20.0008C107.544 20.0008 106.674 19.8208 105.894 19.4608C105.126 19.0888 104.46 18.5968 103.896 17.9848C103.344 17.3608 102.918 16.6648 102.618 15.8968C102.318 15.1168 102.168 14.3128 102.168 13.4848C102.168 12.6328 102.324 11.8228 102.636 11.0548C102.96 10.2868 103.404 9.60282 103.968 9.00282C104.544 8.39082 105.222 7.91082 106.002 7.56282C106.782 7.21482 107.634 7.04082 108.558 7.04082C109.506 7.04082 110.364 7.22682 111.132 7.59882C111.912 7.95882 112.578 8.45082 113.13 9.07482C113.694 9.69882 114.126 10.4008 114.426 11.1808C114.726 11.9488 114.876 12.7348 114.876 13.5388C114.876 14.3908 114.72 15.2008 114.408 15.9688C114.096 16.7368 113.652 17.4268 113.076 18.0388C112.5 18.6388 111.822 19.1188 111.042 19.4788C110.274 19.8268 109.428 20.0008 108.504 20.0008ZM105.174 13.5208C105.174 14.0128 105.246 14.4928 105.39 14.9608C105.534 15.4168 105.744 15.8248 106.02 16.1848C106.308 16.5448 106.662 16.8328 107.082 17.0488C107.502 17.2648 107.982 17.3728 108.522 17.3728C109.086 17.3728 109.578 17.2648 109.998 17.0488C110.418 16.8208 110.766 16.5208 111.042 16.1488C111.318 15.7768 111.522 15.3628 111.654 14.9068C111.798 14.4388 111.87 13.9648 111.87 13.4848C111.87 12.9928 111.798 12.5188 111.654 12.0628C111.51 11.6068 111.294 11.1988 111.006 10.8388C110.718 10.4668 110.364 10.1788 109.944 9.97482C109.524 9.77082 109.05 9.66882 108.522 9.66882C107.958 9.66882 107.466 9.77682 107.046 9.99282C106.638 10.2088 106.29 10.5028 106.002 10.8748C105.726 11.2348 105.516 11.6488 105.372 12.1168C105.24 12.5728 105.174 13.0408 105.174 13.5208Z" fill="#F4F4FD"/>
</svg>
